{
  "accessors": [
    {
      "bufferView": 2,
      "componentType": 5126,
      "count": 146,
      "max": [
        -80.0,
        17.81678581237793,
        18.0
      ],
      "min": [
        -155.0,
        -17.81678581237793,
        -18.0
      ],
      "type": "VEC3"
    },
    {
      "bufferView": 2,
      "byteOffset": 1752,
      "componentType": 5126,
      "count": 146,
      "max": [
        0.0,
        0.996584415435791,
        1.0
      ],
      "min": [
        -1.0,
        -0.996584415435791,
        -1.0
      ],
      "type": "VEC3"
    },
    {
      "bufferView": 1,
      "componentType": 5126,
      "count": 146,
      "max": [
        0.7014480233192444,
        2.226325035095215
      ],
      "min": [
        -4.1338582038879395,
        -2.226325035095215
      ],
      "type": "VEC2"
    },
    {
      "bufferView": 0,
      "componentType": 5125,
      "count": 420,
      "type": "SCALAR"
    },
    {
      "bufferView": 2,
      "byteOffset": 3504,
      "componentType": 5126,
      "count": 68,
      "max": [
        -50.0,
        17.81678581237793,
        18.0
      ],
      "min": [
        -66.0,
        -17.81678581237793,
        -18.0
      ],
      "type": "VEC3"
    },
    {
      "bufferView": 2,
      "byteOffset": 4320,
      "componentType": 5126,
      "count": 68,
      "max": [
        1.0,
        0.9898220896720886,
        1.0
      ],
      "min": [
        0.0,
        -0.9898220896720886,
        -1.0
      ],
      "type": "VEC3"
    },
    {
      "bufferView": 1,
      "byteOffset": 1168,
      "componentType": 5126,
      "count": 68,
      "max": [
        0.7014480233192444,
        2.226325035095215
      ],
      "min": [
        -0.7014480233192444,
        -2.226325035095215
      ],
      "type": "VEC2"
    },
    {
      "bufferView": 0,
      "byteOffset": 1680,
      "componentType": 5125,
      "count": 192,
      "type": "SCALAR"
    },
    {
      "bufferView": 2,
      "byteOffset": 5136,
      "componentType": 5126,
      "count": 418,
      "max": [
        20.0,
        40.0,
        109.60263061523438
      ],
      "min": [
        -40.0,
        -40.0,
        54.25864028930664
      ],
      "type": "VEC3"
    },
    {
      "bufferView": 2,
      "byteOffset": 10152,
      "componentType": 5126,
      "count": 418,
      "max": [
        1.0,
        1.0,
        1.0
      ],
      "min": [
        -1.0,
        -1.0,
        -1.0
      ],
      "type": "VEC3"
    },
    {
      "bufferView": 1,
      "byteOffset": 1712,
      "componentType": 5126,
      "count": 418,
      "max": [
        1.800840973854065,
        2.3622050285339355
      ],
      "min": [
        -2.3622050285339355,
        -1.236847996711731
      ],
      "type": "VEC2"
    },
    {
      "bufferView": 0,
      "byteOffset": 2448,
      "componentType": 5125,
      "count": 1140,
      "type": "SCALAR"
    },
    {
      "bufferView": 2,
      "byteOffset": 15168,
      "componentType": 5126,
      "count": 482,
      "max": [
        134.78460693359375,
        74.0,
        74.0
      ],
      "min": [
        93.99999237060547,
        -74.0,
        -74.0
      ],
      "type": "VEC3"
    },
    {
      "bufferView": 2,
      "byteOffset": 20952,
      "componentType": 5126,
      "count": 482,
      "max": [
        1.0,
        1.0,
        1.0
      ],
      "min": [
        -1.0,
        -1.0,
        -1.0
      ],
      "type": "VEC3"
    },
    {
      "bufferView": 1,
      "byteOffset": 5056,
      "componentType": 5126,
      "count": 482,
      "max": [
        2.913386106491089,
        9.152671813964844
      ],
      "min": [
        -2.913386106491089,
        -9.152671813964844
      ],
      "type": "VEC2"
    },
    {
      "bufferView": 0,
      "byteOffset": 7008,
      "componentType": 5125,
      "count": 1434,
      "type": "SCALAR"
    },
    {
      "bufferView": 2,
      "byteOffset": 26736,
      "componentType": 5126,
      "count": 3422,
      "max": [
        134.78460693359375,
        70.0,
        73.41755676269531
      ],
      "min": [
        -80.0,
        -70.0,
        -80.0
      ],
      "type": "VEC3"
    },
    {
      "bufferView": 2,
      "byteOffset": 67800,
      "componentType": 5126,
      "count": 3422,
      "max": [
        1.0,
        1.0,
        1.0
      ],
      "min": [
        -1.0,
        -1.0,
        -1.0
      ],
      "type": "VEC3"
    },
    {
      "bufferView": 1,
      "byteOffset": 8912,
      "componentType": 5126,
      "count": 3422,
      "max": [
        3.1496059894561768,
        8.842144966125488
      ],
      "min": [
        -5.118110179901123,
        -8.47372055053711
      ],
      "type": "VEC2"
    },
    {
      "bufferView": 0,
      "byteOffset": 12744,
      "componentType": 5125,
      "count": 9378,
      "type": "SCALAR"
    }
  ],
  "asset": {
    "extras": {
      "author": "Mechanical 3D (https://sketchfab.com/riskimech)",
      "license": "CC-BY-4.0 (http://creativecommons.org/licenses/by/4.0/)",
      "source": "https://sketchfab.com/3d-models/machinery-single-pashe-dc-motor-bbeb81be53fe459aa666e975dbc9448f",
      "title": "Machinery - Single Pashe DC Motor"
    },
    "generator": "Sketchfab-16.29.0",
    "version": "2.0"
  },
  "bufferViews": [
    {
      "buffer": 0,
      "byteLength": 50256,
      "name": "floatBufferViews",
      "target": 34963
    },
    {
      "buffer": 0,
      "byteLength": 36288,
      "byteOffset": 50256,
      "byteStride": 8,
      "name": "floatBufferViews",
      "target": 34962
    },
    {
      "buffer": 0,
      "byteLength": 108864,
      "byteOffset": 86544,
      "byteStride": 12,
      "name": "floatBufferViews",
      "target": 34962
    }
  ],
  "buffers": [
    {
      "byteLength": 195408,
      "uri": "motor.bin"
    }
  ],
  "extensionsUsed": [
    "KHR_materials_specular"
  ],
  "materials": [
    {
      "doubleSided": true,
      "extensions": {
        "KHR_materials_specular": {
          "specularColorFactor": [
            1.0,
            1.0,
            1.0
          ],
          "specularFactor": 1.0
        }
      },
      "name": "190188186",
      "pbrMetallicRoughness": {
        "baseColorFactor": [
          0.3531380229789897,
          0.3531380229789897,
          0.3531380229789897,
          1.0
        ],
        "roughnessFactor": 0.24725046338131706
      }
    },
    {
      "doubleSided": true,
      "name": "191191191",
      "pbrMetallicRoughness": {
        "metallicFactor": 0.0,
        "roughnessFactor": 0.6
      }
    },
    {
      "doubleSided": true,
      "name": "20315459",
      "pbrMetallicRoughness": {
        "baseColorFactor": [
          0.7570489631307835,
          0.4711241297229931,
          0.0,
          1.0
        ],
        "roughnessFactor": 0.2047393953210972
      }
    },
    {
      "doubleSided": true,
      "extensions": {
        "KHR_materials_specular": {
          "specularColorFactor": [
            1.0,
            1.0,
            1.0
          ],
          "specularFactor": 0.0
        }
      },
      "name": "2437248",
      "pbrMetallicRoughness": {
        "baseColorFactor": [
          0.03508378060826446,
          0.07622181197907504,
          0.11473555333062971,
          1.0
        ],
        "roughnessFactor": 0.26546949254998287
      }
    },
    {
      "doubleSided": true,
      "name": "255255255",
      "pbrMetallicRoughness": {
        "baseColorFactor": [
          0.029211094694541206,
          0.029211094694541206,
          0.029211094694541206,
          1.0
        ],
        "roughnessFactor": 0.6
      }
    }
  ],
  "meshes": [
    {
      "name": "Object_0",
      "primitives": [
        {
          "attributes": {
            "NORMAL": 1,
            "POSITION": 0,
            "TEXCOORD_0": 2
          },
          "indices": 3,
          "material": 0,
          "mode": 4
        }
      ]
    },
    {
      "name": "Object_1",
      "primitives": [
        {
          "attributes": {
            "NORMAL": 5,
            "POSITION": 4,
            "TEXCOORD_0": 6
          },
          "indices": 7,
          "material": 1,
          "mode": 4
        }
      ]
    },
    {
      "name": "Object_2",
      "primitives": [
        {
          "attributes": {
            "NORMAL": 9,
            "POSITION": 8,
            "TEXCOORD_0": 10
          },
          "indices": 11,
          "material": 2,
          "mode": 4
        }
      ]
    },
    {
      "name": "Object_3",
      "primitives": [
        {
          "attributes": {
            "NORMAL": 13,
            "POSITION": 12,
            "TEXCOORD_0": 14
          },
          "indices": 15,
          "material": 3,
          "mode": 4
        }
      ]
    },
    {
      "name": "Object_4",
      "primitives": [
        {
          "attributes": {
            "NORMAL": 17,
            "POSITION": 16,
            "TEXCOORD_0": 18
          },
          "indices": 19,
          "material": 4,
          "mode": 4
        }
      ]
    }
  ],
  "nodes": [
    {
      "children": [
        1
      ],
      "matrix": [
        0.006757484283298254,
        0.0,
        0.0,
        0.0,
        0.0,
        1.5004629279720692e-18,
        -0.006757484283298254,
        0.0,
        0.0,
        0.006757484283298254,
        1.5004629279720692e-18,
        0.0,
        0.0,
        0.0,
        0.0,
        1.0
      ],
      "name": "Sketchfab_model"
    },
    {
      "children": [
        2,
        3,
        4,
        5,
        6
      ],
      "name": "motor dc skala.obj.cleaner.materialmerger.gles"
    },
    {
      "mesh": 0,
      "name": "Object_2"
    },
    {
      "mesh": 1,
      "name": "Object_3"
    },
    {
      "mesh": 2,
      "name": "Object_4"
    },
    {
      "mesh": 3,
      "name": "Object_5"
    },
    {
      "mesh": 4,
      "name": "Object_6"
    }
  ],
  "scene": 0,
  "scenes": [
    {
      "name": "Sketchfab_Scene",
      "nodes": [
        0
      ]
    }
  ]
}
